PathFileType	4	(X/Y/Z)	 s11c0402.trc
DataRate	CameraRate	NumFrames	NumMarkers	Units	OrigDataRate	OrigDataStartFrame	OrigNumFrames
200	200	6	48	mm	200	1251	2000
Frame#	Time	racr			lacr			c7			jug			rlel			rdr			llel			ldr			s2			lic			ric			lasi			rasi			rpsi			lpsi			rgt			lgt			rth1			rth2			rth3			rth4			rlfc			rmfc			rsh1			rsh2			rsh3			rsh4			rlmal			rcal			rtoe			rmt5			lth1			lth2			lth4			lth3			llfc			lmfc			llmal			lcal			lmt5			lsh1			lsh2			lsh3			lsh4			ltoe			SBIKE			LBIKE			RBIKE			
		X1	Y1	Z1	X2	Y2	Z2	X3	Y3	Z3	X4	Y4	Z4	X5	Y5	Z5	X6	Y6	Z6	X7	Y7	Z7	X8	Y8	Z8	X9	Y9	Z9	X10	Y10	Z10	X11	Y11	Z11	X12	Y12	Z12	X13	Y13	Z13	X14	Y14	Z14	X15	Y15	Z15	X16	Y16	Z16	X17	Y17	Z17	X18	Y18	Z18	X19	Y19	Z19	X20	Y20	Z20	X21	Y21	Z21	X22	Y22	Z22	X23	Y23	Z23	X24	Y24	Z24	X25	Y25	Z25	X26	Y26	Z26	X27	Y27	Z27	X28	Y28	Z28	X29	Y29	Z29	X30	Y30	Z30	X31	Y31	Z31	X32	Y32	Z32	X33	Y33	Z33	X34	Y34	Z34	X35	Y35	Z35	X36	Y36	Z36	X37	Y37	Z37	X38	Y38	Z38	X39	Y39	Z39	X40	Y40	Z40	X41	Y41	Z41	X42	Y42	Z42	X43	Y43	Z43	X44	Y44	Z44	X45	Y45	Z45	X46	Y46	Z46	X47	Y47	Z47	X48	Y48	Z48	
1251	6.2550	833.800746	1309.691810	-42.738692	840.164204	1313.186894	-390.450654	821.325292	1414.740238	-216.684824	791.024288	1235.077890	-218.236050	614.531722	1139.690805	70.615659	774.995375	966.564789	-34.293995	604.529756	1164.913777	-567.115616	777.888143	955.350434	-442.280013	202.298401	1291.426509	-227.786268	414.902210	1239.993390	-431.346286	425.684247	1261.646519	-31.786684	429.046249	1164.680430	-395.886940	434.360117	1204.334334	-80.495855	263.321818	1359.995984	-182.396569	258.865190	1345.103201	-276.170466	371.628185	1154.573784	-7.475550	277.409685	1132.291096	-425.843227	481.873066	1067.095533	-5.052043	562.917930	1031.842532	-16.698898	615.035269	961.105441	-26.527370	582.269074	1058.957079	-31.640404	691.770161	890.176076	-42.091565	691.957868	871.435495	-175.786151	573.585034	787.043235	-37.068089	518.539383	723.092825	-59.695269	436.674964	691.267410	-64.798208	536.243269	704.691376	-89.430261	316.542587	622.269323	-81.881251	266.928871	666.963578	-131.428301	400.142583	411.829354	-135.843196	338.883744	453.403073	-66.241930	302.296531	991.857539	-443.814799	329.757622	911.193688	-437.022985	366.617859	912.632506	-432.246610	312.004005	823.770280	-426.486459	324.229624	685.271851	-398.953537	324.824914	675.566693	-267.563459	157.395888	289.093528	-399.157195	93.545497	281.285883	-371.025428	252.986605	148.236689	-442.477524	268.715617	573.681713	-424.653120	261.251995	488.471069	-414.166102	212.289203	415.151858	-413.967034	291.605557	480.179449	-392.219357	348.407045	123.805953	-374.045104	-204.296286	954.613132	-262.599301	1.322243	82.479540	-460.899076	-15.186093	81.115585	-62.463846	
1252	6.2600	832.842989	1309.293072	-40.727948	840.944482	1314.057675	-388.191244	820.742413	1415.121694	-214.386448	790.911923	1235.155871	-216.226853	613.415575	1139.089117	71.495516	774.609890	966.841270	-34.347904	606.976013	1164.943896	-566.130779	779.772287	955.331451	-442.958271	202.008005	1293.085388	-229.238310	416.441084	1241.227872	-430.922594	424.275430	1263.202938	-31.704251	430.151173	1166.148357	-395.110575	433.353715	1206.191104	-80.962592	263.551889	1361.616246	-183.954218	258.907018	1346.840624	-277.418337	371.369749	1157.434990	-7.950185	277.746570	1133.990573	-426.369557	482.370191	1069.748450	-5.926965	563.665657	1035.526508	-17.562411	617.179736	965.643020	-28.318518	584.358722	1064.200393	-33.715392	695.369026	895.896470	-44.603873	695.103513	878.164387	-179.200487	579.799401	791.049718	-38.486309	525.840498	725.816839	-60.708234	444.545396	692.640500	-65.625166	543.561632	708.048662	-90.931687	323.433116	620.716452	-82.191311	272.385701	664.019711	-131.707567	411.715782	412.147115	-135.804591	349.707300	452.423278	-66.079563	300.864848	994.123787	-444.621025	327.623831	913.229484	-438.098192	364.482012	914.426266	-433.649836	309.160887	825.800326	-427.457608	321.183558	686.961930	-400.346821	323.579546	677.234799	-269.053329	149.804347	293.093586	-399.561399	86.090994	286.312354	-371.026400	242.721460	150.198177	-442.917087	264.372423	576.096209	-425.642842	256.023454	490.983678	-415.234114	206.136125	418.187567	-414.721249	286.430542	482.212797	-393.409938	337.979434	124.332012	-374.807628	-204.326479	954.613748	-262.585258	1.330025	82.487750	-460.914361	-15.179872	81.120376	-62.476480	
1253	6.2650	831.937045	1308.984104	-38.906209	841.615458	1314.771625	-385.902376	820.190521	1415.430453	-212.125814	790.704586	1235.175983	-214.131876	612.384088	1138.416708	72.398245	774.366497	967.254044	-34.567265	609.195075	1165.075703	-565.137819	781.590449	955.111034	-444.235861	201.741213	1295.056525	-230.215716	417.943676	1242.742281	-430.542538	422.982036	1264.973760	-31.561734	431.212099	1167.557813	-394.404553	432.284280	1207.444695	-80.710400	263.164868	1363.608894	-184.964888	258.986833	1348.857236	-278.671091	371.151050	1160.093337	-8.196233	278.193508	1136.071471	-427.057338	482.667561	1072.468717	-6.837269	562.465226	1039.238847	-17.507664	618.559770	969.883277	-29.474486	586.613098	1069.475366	-35.849495	697.923544	901.260369	-47.245620	697.554193	883.996222	-182.195322	585.452937	794.501941	-40.032548	532.986078	728.193877	-61.674084	452.150233	693.259867	-66.603781	550.667845	711.027116	-92.520247	329.870526	618.396887	-82.575221	277.509021	660.308282	-132.090234	423.058191	412.000766	-135.744130	360.177234	450.988241	-65.951553	299.794769	996.568031	-445.336014	326.013339	915.502981	-439.166051	362.941313	916.437400	-435.080337	307.030122	828.037180	-428.422508	319.087515	689.077182	-402.041156	323.655047	678.655324	-270.875214	142.545138	297.677767	-400.063245	78.859960	291.942601	-371.174141	232.820681	152.876219	-443.323878	261.235129	578.821462	-426.934273	251.674653	493.903518	-416.483263	200.765354	421.798991	-415.613398	282.176666	484.644434	-394.771540	327.787914	125.588895	-375.400171	-204.346680	954.642798	-262.595271	1.361352	82.433608	-460.975830	-15.175420	81.143876	-62.475925	
1254	6.2700	831.094250	1308.760088	-37.239403	842.203832	1315.362952	-383.604096	819.634579	1415.451589	-209.997778	790.256524	1234.971795	-212.308382	611.453576	1137.691127	73.299520	774.170181	967.450491	-34.670436	611.111636	1165.454797	-564.205783	783.183077	954.631865	-445.877083	202.328984	1297.449884	-231.968721	419.362550	1244.212972	-430.276438	421.955017	1266.995791	-31.435883	432.064905	1169.046678	-393.814459	431.608499	1210.662124	-79.184437	262.662560	1365.922703	-185.729620	259.151864	1351.171659	-279.662801	370.857856	1163.008762	-8.224231	278.642783	1138.343705	-427.940486	482.848024	1075.230953	-7.702602	564.320295	1042.492273	-19.169052	619.498007	973.613867	-30.940341	587.841582	1073.790914	-37.238597	699.596788	906.355449	-49.170670	699.116703	889.247152	-184.255471	589.741051	797.025223	-41.753285	538.613152	729.221345	-63.111666	458.533994	692.794005	-67.552302	558.690989	713.051380	-93.140683	335.826038	615.361950	-83.087956	282.251283	655.744044	-132.463160	434.242355	411.348552	-135.470003	370.478191	448.928237	-65.841730	299.143426	999.159933	-445.956262	325.112973	917.964910	-440.185186	362.052691	918.719312	-436.520066	305.877303	830.555159	-429.575229	318.130792	691.494238	-404.033018	325.002483	680.033884	-273.073054	135.605947	302.809218	-400.594365	72.022192	298.157652	-371.405177	223.156046	156.241808	-443.627561	259.258250	581.935741	-428.406818	248.308523	497.133026	-417.825222	196.142003	425.969998	-416.627578	278.725647	487.368970	-396.216776	317.735108	127.465678	-375.921850	-204.360053	954.687466	-262.586470	1.360464	82.460127	-460.981778	-15.166618	81.217892	-62.495285	
1255	6.2750	830.276798	1308.351796	-35.762311	842.701598	1315.679410	-381.297664	819.241331	1415.348662	-208.010791	789.833008	1234.874549	-210.348430	610.555704	1136.981924	74.237103	773.999517	967.644834	-34.817326	612.676996	1166.217946	-563.413532	784.316931	953.928668	-447.635980	202.510005	1299.870737	-232.778361	420.549852	1246.038959	-429.999415	421.145402	1269.170427	-31.341759	432.649484	1170.810562	-393.252332	430.926045	1212.949334	-79.744551	262.237515	1368.327856	-186.443042	259.360386	1353.582370	-279.227992	370.608174	1165.737739	-8.375348	278.992067	1140.864802	-428.740964	482.691560	1077.918256	-8.261371	563.378791	1046.315764	-19.620886	619.419629	976.708094	-32.059643	586.853556	1076.155953	-37.078577	700.669098	911.065724	-51.743179	699.943025	894.273662	-186.769710	592.542579	797.885308	-43.596410	542.611554	729.025162	-64.749906	463.387879	690.952536	-68.552796	562.632745	713.215216	-95.348268	341.509629	611.724343	-83.643104	286.526411	650.474557	-132.982636	444.991006	410.253014	-135.500749	380.501451	446.342651	-65.756543	299.004874	1001.722723	-446.468097	324.969001	920.558186	-441.157334	361.907818	921.311437	-437.892569	305.739899	833.096872	-430.863902	318.330577	694.114643	-406.291320	327.361952	681.551626	-275.466000	129.140662	308.548287	-401.250528	65.776451	305.144788	-371.635302	213.761357	160.228259	-444.042537	258.370818	585.280429	-430.092279	245.790002	500.695282	-419.338440	192.209914	430.595934	-417.771439	276.110640	490.478837	-397.917069	307.926908	129.761179	-376.346362	-204.361739	954.735399	-262.564859	1.376486	82.514707	-460.981164	-15.169478	81.265876	-62.513065	
1256	6.2800	829.515789	1307.879935	-34.312230	843.119486	1315.871202	-378.998798	818.987123	1415.050955	-206.066766	788.960358	1234.434139	-209.001367	609.740101	1136.115009	75.191687	773.861379	967.824196	-34.958399	613.804385	1167.370012	-562.779936	784.828035	953.055832	-449.419949	202.791027	1302.682165	-233.663077	421.568436	1248.013800	-429.572317	420.582849	1271.407734	-31.185358	433.168952	1172.745381	-392.528448	430.222284	1215.403783	-79.915446	262.048007	1370.987271	-186.850258	259.713804	1356.295386	-279.774128	370.315808	1168.461999	-8.428781	279.390387	1143.492715	-429.606671	482.284842	1080.951869	-8.542047	562.474505	1049.304767	-20.336637	618.315500	979.028751	-33.095898	585.821315	1078.304431	-37.114911	700.164222	915.052071	-53.283204	700.215780	898.611900	-189.084051	594.305916	797.684072	-45.717920	545.611622	727.871840	-66.358244	467.038857	688.245254	-69.665600	565.442027	712.390560	-97.353876	346.717715	607.069297	-84.040934	290.526322	644.322117	-133.305604	455.600450	408.565692	-135.273718	390.138731	443.095883	-65.703458	299.386950	1004.111918	-446.941274	325.674396	923.244749	-442.165247	362.617732	924.087275	-439.148146	306.827796	835.653478	-432.120223	319.755984	696.887110	-408.750417	331.025857	683.134344	-278.282648	123.247483	315.105181	-402.086099	59.963456	312.867692	-371.925310	204.713341	164.903763	-444.352334	258.521116	588.752899	-431.978549	244.127502	504.527996	-421.024882	188.993481	435.691918	-419.101726	274.251517	493.830544	-399.761241	298.329749	132.610549	-376.798539	-204.334960	954.773808	-262.551177	1.380177	82.540638	-460.981968	-15.157953	81.317951	-62.518194	
